<?xml version="1.0" encoding="utf-8"?>
<!-- Generator: Adobe Illustrator 16.0.0, SVG Export Plug-In . SVG Version: 6.00 Build 0)  -->
<svg version="1.2" baseProfile="tiny" id="图层_1"
	 xmlns="http://www.w3.org/2000/svg" xmlns:xlink="http://www.w3.org/1999/xlink" x="0px" y="0px" width="294px" height="56px"
	 viewBox="0 0 294 56" xml:space="preserve">
<g>
	<g>
		<g>
			<path fill="#F78B14" d="M39.165,53.57c0,0-3.079,1.924-4.233,0c-0.582-0.971,2.117-4.619,2.117-4.619s16.907-23.783,28.06-24.369
				c12.843-0.674,18.48,10.97,18.48,10.97s1.313,2.328,0.377,4.424c-1.57,3.514-5.003,0.385-5.003,0.385s-8.492-7.494-15.984-4.324
				C55.487,39.207,39.165,53.57,39.165,53.57z"/>
			<linearGradient id="SVGID_1_" gradientUnits="userSpaceOnUse" x1="45.25" y1="37.918" x2="67.7515" y2="55.0695">
				<stop  offset="0" style="stop-color:#FF523F;stop-opacity:0.5"/>
				<stop  offset="1" style="stop-color:#6D001C"/>
			</linearGradient>
			<path fill="url(#SVGID_1_)" d="M39.165,53.57c0,0-3.079,1.924-4.233,0c-0.582-0.971,2.117-4.619,2.117-4.619
				s10.867-17.303,22.027-17.689c11.161-0.383,19.887,9.1,19.887,9.1s-8.492-7.494-15.984-4.324
				C55.487,39.207,39.165,53.57,39.165,53.57z"/>
		</g>
		<g>
			<path fill="#D32C16" d="M4.973,46.135c0,0-2.687,1.678-3.694,0c-0.508-0.848,1.848-4.031,1.848-4.031s9.901-14.831,19.633-15.341
				c11.207-0.588,16.127,9.572,16.127,9.572s1.146,2.033,0.328,3.861c-1.37,3.066-4.365,0.336-4.365,0.336
				s-7.411-6.539-13.948-3.773C14.363,39.523,4.973,46.135,4.973,46.135z"/>
			<linearGradient id="SVGID_2_" gradientUnits="userSpaceOnUse" x1="7.9131" y1="35.4805" x2="27.3856" y2="50.3232">
				<stop  offset="0" style="stop-color:#FF523F;stop-opacity:0.5"/>
				<stop  offset="1" style="stop-color:#6D001C"/>
			</linearGradient>
			<path fill="url(#SVGID_2_)" d="M4.973,46.135c0,0-2.687,1.678-3.694,0c-0.508-0.848,1.848-4.031,1.848-4.031
				s4.63-9.176,14.369-9.512s17.354,7.939,17.354,7.939s-7.411-6.539-13.948-3.773C14.363,39.523,4.973,46.135,4.973,46.135z"/>
		</g>
		<g>
			<path fill="#18A1D1" d="M64.908,16.939c0,0-3.635-5.438-8.661-9.842c-1.927-2.066-4.844-4.31-8.846-5.163
				c-0.708-0.178-1.417-0.299-2.126-0.337c-0.379-0.02-0.748-0.024-1.112-0.021c-0.364-0.003-0.734,0.002-1.112,0.021
				c-0.709,0.038-1.419,0.159-2.126,0.337c-4.002,0.854-6.919,3.097-8.846,5.163c-5.027,4.403-8.661,9.842-8.661,9.842
				s-2.355,3.184-1.848,4.03c1.008,1.679,3.694,0,3.694,0s9.39-6.61,15.928-9.376c0.98-0.415,1.979-0.602,2.971-0.651
				c0.991,0.05,1.99,0.236,2.97,0.651c6.538,2.766,15.929,9.376,15.929,9.376s2.687,1.679,3.693,0
				C67.263,20.123,64.908,16.939,64.908,16.939z"/>
			<linearGradient id="SVGID_3_" gradientUnits="userSpaceOnUse" x1="28.1328" y1="10.4082" x2="47.8306" y2="25.4226">
				<stop  offset="0" style="stop-color:#6ABAFF;stop-opacity:0.5"/>
				<stop  offset="1" style="stop-color:#004CBF"/>
			</linearGradient>
			<path fill="url(#SVGID_3_)" d="M25.264,20.969c0,0-2.687,1.679-3.694,0c-0.508-0.847,1.847-4.03,1.847-4.03
				s4.631-9.177,14.37-9.513s17.354,8.406,17.354,8.406s-2.221-1.33-5.063-2.847c-3.289-1.756-5.779-2.707-8.885-1.393
				C34.654,14.359,25.264,20.969,25.264,20.969z"/>
		</g>
	</g>
	<g>
		<path d="M102.494,42.549c2.328-0.514,4.006-1.357,5.043-2.521c2.975-3.23,5.496-7.371,7.566-12.416h-14.938l-1.357-4.462h37.246
			l2.91-3.298l6.402,4.85l-1.357,2.91h-24.832l4.461,2.328c-3.49,4.656-6.92,8.666-10.281,12.027c4.268,0.131,9.959,0,17.072-0.387
			c-0.26-0.516-0.713-1.229-1.357-2.135c-1.037-1.551-1.813-2.715-2.328-3.492l2.521-2.133c4.525,2.977,8.082,5.818,10.67,8.535
			c0.902,0.648,1.098,1.553,0.582,2.717c-0.775,1.939-1.746,3.686-2.91,5.238c-0.906,1.162-1.746,1.096-2.521-0.195
			c-0.775-1.551-1.553-2.977-2.328-4.268c-11.252,1.553-20.951,2.717-29.1,3.492L102.494,42.549z M104.045,10.54h26.967l2.717-2.716
			l5.625,5.044l-1.357,2.135h-32.787L104.045,10.54z"/>
		<path d="M148.084,26.835c8.535-5.819,14.871-12.867,19.012-21.146l8.146,2.521l-2.133,2.717
			c5.818,5.044,12.867,8.535,21.145,10.476c-1.424,1.164-3.104,3.622-5.043,7.372c-8.021-4.007-14.229-8.988-18.623-14.938
			c-3.492,3.879-7.697,7.438-12.611,10.67h6.402c-0.131,2.588-0.389,5.042-0.775,7.371c1.809,1.037,3.943,2.59,6.402,4.656
			c0.516,0.52,0.582,1.164,0.193,1.939c0,0.131-0.066,0.262-0.193,0.389c-1.037,1.813-1.877,3.104-2.523,3.881
			c-0.26,0.387-0.518,0.582-0.775,0.582c-0.26-0.127-0.518-0.453-0.775-0.971c-0.777-1.553-1.941-3.619-3.492-6.207
			c-1.813,5.691-5.887,10.475-12.223,14.355l-2.328-2.135c6.336-5.559,9.246-13.191,8.73-22.891
			c-1.939,1.294-4.01,2.521-6.207,3.686L148.084,26.835z M188.822,50.891c-4.01-3.621-7.178-7.76-9.506-12.416
			c-1.939,5.045-6.014,9.439-12.221,13.193l-2.523-2.135c6.209-5.17,9.246-12.221,9.119-21.146v-4.073h7.564v4.073
			c0,1.294-0.129,2.654-0.387,4.074c2.973,5.305,7.566,9.506,13.773,12.611C192.83,45.979,190.891,47.914,188.822,50.891z"/>
		<path d="M198.523,9.375h37.053l2.328-2.521l6.209,4.85l-1.941,2.328h-5.236V46.43c0.775,2.717-2.072,4.268-8.537,4.656
			c-0.131-2.59-1.813-3.947-5.043-4.074l-0.389-2.717c5.043,0.65,7.305,0.131,6.789-1.551V14.032h-30.264L198.523,9.375z
			 M217.729,37.506h-7.953v3.879h-6.596V18.106h6.596v1.552h7.953l1.939-2.328l6.596,4.656l-1.939,1.746v16.684h-6.596V37.506z
			 M209.775,33.043h7.953V24.12h-7.953V33.043z"/>
		<path d="M253.424,51.086V28c-0.518,0.776-1.293,1.813-2.328,3.104c-0.648,0.775-1.1,1.357-1.357,1.746l-2.717-1.939
			c4.396-8.664,7.566-17.072,9.506-25.22l7.955,2.328c-0.52,1.552-1.164,2.977-1.939,4.268h11.445
			c-0.262-0.775-0.713-1.873-1.357-3.298c-0.65-1.422-1.102-2.521-1.359-3.298l2.523-1.357c2.584,1.424,4.588,2.977,6.014,4.655
			c0.902,0.776,0.969,1.552,0.193,2.328c-0.131,0.13-0.26,0.261-0.389,0.388c0,0.131-0.193,0.324-0.582,0.582h6.791l1.746-2.328
			L293,14.226l-1.164,2.328h-29.488l-0.582-2.328l-1.551,2.91v33.95H253.424z M263.512,19.658h19.4l1.939-2.134l5.432,4.268
			l-1.357,1.94h-24.639L263.512,19.658z M263.512,27.03h19.4l1.746-2.134l5.432,4.073l-1.164,2.134h-24.639L263.512,27.03z
			 M264.094,33.238h6.596v1.357h11.252l2.135-2.521l6.402,3.879l-1.553,2.135v13.191h-6.789v-2.521h-11.447v2.328h-6.596V33.238z
			 M270.689,38.67v6.402h11.447V38.67H270.689z"/>
	</g>
</g>
</svg>
